
<svg xmlns="http://www.w3.org/2000/svg" version="1.1" xmlns:xlink="http://www.w3.org/1999/xlink" preserveAspectRatio="none" x="0px" y="0px" width="300px" height="250px" viewBox="0 0 300 250">
<defs>
<g id="Layer0_0_MEMBER_0_FILL">
<path fill="#FFFFFF" stroke="none" d="
M 672.75 94.15
Q 670.95 89.6 664.7 95.15 660.7 88.25 649.05 82.45 644.35 80.1 641.85 80 639.15 79.85 640.6 82.55 634 79.4 624.85 80.25 606.45 81.9 593.65 101.9 592.75 103.4 593.15 104.75 593.5 105.95 594.65 106.2 594.75 106.95 593.25 109.4 591.45 112.15 590.9 113.1 588.7 117.1 587.45 121.85 586.1 127 586.35 131.4 586.5 135.15 587.55 136.35 588.25 137.15 590.8 138.7 584.35 141.3 583.95 146.8 583.75 149.3 586.2 160.55 583.3 162.9 581 165.35 578.45 161.1 575.05 158.3 570.6 154.7 565.15 153.9
L 564.8 153.85
Q 563.75 153.85 563 154.6 562.25 155.45 562.25 156.4
L 562.3 157 562.5 157.55
Q 566.2 165.2 566 169.25 565.7 174.6 559.3 177.95 553.9 180.85 550.95 184.65 547.8 188.7 547.55 193.4 547.45 194.3 548.2 195.05
L 548.75 195.4
Q 549.35 195.7 549.8 195.7
L 550.55 195.6
Q 559.85 192.1 564.75 193.3 567.95 194.05 572.6 198.65 577.15 203 580.2 205.15 585.7 209.05 592.95 211.6 601.6 214.7 611.5 216.25 621.65 217.85 631.8 217.6 644.3 217.2 655.15 214.1
L 655.4 214.35
Q 656.95 215.8 659.6 216.55
L 659.95 216.6
Q 662.4 216.7 669.05 212.65 672.25 210.75 674.85 208.8 677.6 206.8 678.2 205.85 678.9 204.75 678.5 202.8
L 681.5 200.9
Q 683.5 203.5 685.85 206 689.45 209.9 690.55 209.8 691.15 209.75 691.65 209.35 692.1 208.95 692.25 208.4 692.8 207 692.8 204.75 692.9 199.3 691.05 193.95 695.3 190.55 698.35 187.55 710.55 175.8 714.6 163.25 715.25 161.6 715.2 159.25 715.15 156.1 713.15 154.75 711.4 153.6 707.9 153.8 704.95 153.9 700.25 155.05 693.75 156.55 684.05 158.9 685.3 147.25 685.25 146.5 684.9 141.05 679.9 139.95 685 129.1 683.5 121.45 682.9 118.45 681.45 118.15 679.9 117.8 678.25 120.8 678 121.25 677.4 117.1 676.6 111.25 675.25 107.6 673.9 97 672.75 94.15
M 664.9 102.3
Q 666.75 100.95 667.6 99.75 668.5 98.5 669.4 96.15 669.95 100.35 673.2 112.6 675.8 122.35 675.55 128.5 677.45 127.75 678.55 126.8 679.3 126.1 680.6 124.25 680.5 128.65 679.3 131.15 675.35 138.95 675.45 141.9 675.6 144.5 678.95 144.25 681.5 144.3 681 149.85 680.7 153 679.4 160.1 672.6 161.85 668.5 163.05 659.2 163.1 655.35 163.45 649.05 164.1 643.5 167.35 643.3 167.5 643.3 167.7 643.3 168.05 643.65 168.05 647.45 167.95 649.15 169.1
L 636.7 173.55
Q 636.35 168.5 636.65 165.75 637.1 161.6 639 160.15 639.9 159.45 645.75 157.25 650.9 155.35 654.25 151.75 660.35 145.2 661.9 137.6 663.45 130.3 659.65 122.5 655.5 113.95 646.7 109.15 639.8 105.45 631.55 106.55 623.65 107.6 617.35 112.65 610.8 117.85 608.5 125.35 605.95 133.65 609.45 142.6 612.75 151.05 619.65 155.35 623.4 157.7 629.5 160 632.2 161.45 632.8 166.35 633.15 169.3 632.7 175.1
L 622.6 178.95
Q 620.8 177.5 617.25 176.75 615.2 176.3 611.1 175.95
L 609 175.7 609.15 175.1
Q 609.35 174.3 608.9 173.65 607.85 171.9 605.5 170.7 604.3 170.05 603.1 169.85 601.85 169.65 601.05 170.05
L 600.6 170.3
Q 596.2 167.8 593.05 164.7 590.55 162 589.9 161.5 589.95 159.5 589.3 155.8 588.35 150.9 588.25 149.95 587.5 143.5 592.2 143.2 595.6 143 595.35 138.35 595.05 133.65 590.8 132.8 590.25 126 595.4 115.4 600.6 104.7 606.15 101.55 603.95 100.9 602.15 101.2 600.35 101.55 598.05 102.95 606.45 88.75 620.55 85.8 632.15 83.4 646.6 88.7 646.15 87.7 645.45 86.6 644.65 85.4 644.35 84.75 649.7 86.4 656.6 92.45 663.15 98.25 664.9 102.3
M 653.8 119.9
Q 662.45 133.05 655.35 144.55 652.25 149.65 646.75 152.65 641.1 155.7 634.4 155.85 626.95 156 621.2 152.4 615.95 149.1 613.15 143.35 610.5 137.8 610.9 131.6 611.35 125.2 615 120.1 620.65 122.65 626.45 122.25 633.85 121.7 634.8 115.65 636.3 121.6 643.4 122.1 649.15 122.5 653.8 119.9
M 683.6 164.95
L 683.65 163
Q 689.4 161.5 701.1 158.8 705.5 157.8 708.1 157.65 709.75 157.55 710.45 157.85 711.35 158.2 711.35 159.3 711.4 160.5 710.95 162.05 707.2 173.6 695.65 184.8 692.4 187.9 689.6 190.15 688.8 188.55 688.15 187.55 689.45 198.1 689.2 203.4 689.15 203.55 686.9 201.3 683.6 198.45 683.2 197.95 681.5 195.95 681.8 193.5 682 191.25 683.55 188.5 681.6 189.85 680.5 191.85 679.3 194 679.5 196.25
L 679.7 197.45 676.95 199.25
Q 676.05 198.05 675.45 197.65 674.9 197.15 674.05 197.25
L 673.4 197.35 673.4 195.2
Q 673.5 189.35 672.85 186.6 671.75 181.95 668.25 181.15 667.25 180.9 666.1 181.05 663.9 181.4 662.95 183.6 662.6 184.2 662.35 185.45
L 662.25 185.25
Q 659.1 180.5 655.8 179.3 651.2 177.6 644.95 181.7 639.2 185.5 638.15 189.35 637.3 192.65 639.8 196.4 641.25 198.65 645.7 202.8 648.45 205.45 648.95 205.95
L 649.1 206.05 650.2 207.35
Q 652.2 209.8 653.45 210.7 644.15 213.35 631.7 213.75 621.95 214 612.15 212.45 602.65 210.95 594.25 207.95 587.5 205.55 582.4 201.95 579.4 199.85 575.3 195.85 569.9 190.6 566.5 189.55 561.2 187.9 551.85 191.05 552.5 188.95 554 187.05 556.5 183.75 561.1 181.4 568.65 177.4 569.8 171.9 570.85 167 567.1 158.3 570.1 159.2 572.6 161.3 576.65 164.6 578.6 169.15 579.35 170.95 580.45 176.3 581.6 182 582.6 184.6 584.25 188.9 587.1 190.75 588.15 191.45 590.15 191.8
L 590.2 191.85
Q 591.6 193.65 593.6 194.15 594.25 195.3 596.6 197.75 597.4 198.45 597.75 198.95
L 597.9 199.15
Q 598.85 200.25 600.7 202.7 604.4 207.6 606.4 209.25 609.9 212.15 613.25 211.6 617.2 211 621.6 205.65 626.25 200 625.15 195.4 624.4 192.05 620.1 188.5
L 619.65 188.15 619.75 188.1
Q 621.1 187.95 622.15 187.35 623.35 186.7 624 185.6 624.75 184.3 624.55 182.5
L 624.55 182.35
Q 642.7 175.05 660.25 169.55 669.3 166.65 679.8 164 679.8 166.95 680.6 170.05 683 179.05 688.7 182 685.45 177.35 684.35 172.05 683.6 168.55 683.6 164.95
M 666.8 184.85
Q 667.05 184.75 667.4 184.9 668.9 185.25 669.35 188.7 669.6 190.45 669.6 195.15 669.55 196.9 669.6 198.2 669.6 198.75 669.85 199.1
L 662.75 203.3
Q 657.35 206.35 655.25 207.85
L 655.15 207.95
Q 654.95 208.1 654.4 206.95 653.65 205.45 653.2 204.9 652.05 203.55 651.65 203.2 651.15 202.7 648.3 199.95 644.2 196.15 643 194.3 641.5 192.05 642.25 190 643.1 187.55 647.05 184.9 651.4 182.05 654.55 183.2 656.85 184.05 659.05 187.35
L 660.5 189.75
Q 662.8 193.5 664.05 194.5 664.65 195.05 665.45 194.95 666.25 194.9 666.8 194.3 667.3 193.7 667.25 192.9
L 667.1 192.35
Q 666.15 189.75 666.05 187.3 666.05 185.95 666.4 185.2 666.6 184.85 666.8 184.85
M 673.75 201.35
Q 674.3 202.2 674.5 202.75
L 675 203.8
Q 674.6 204.45 672.25 206.1 669.95 207.7 667.1 209.4 661.6 212.6 660.3 212.75 658.9 212.35 658.05 211.55 657.65 211.15 657.55 210.95
L 667.5 205.05
Q 672.95 201.9 673.75 201.35
M 588.2 164.5
Q 591.35 167.55 592.55 168.6 595.25 171 597.9 172.85 595.65 175.3 593.25 178.45 588.8 184.45 588.45 186.9 586.9 185.4 585.85 182.05 585.15 179.95 584.25 175.55 583.3 171.2 583.05 170.25 583.95 168.9 585.45 167.35 587.85 164.85 588.2 164.5
M 602.05 185.55
L 606.85 179.1
Q 607.2 179.3 607.65 179.4 608.55 179.55 610.75 179.75 615.3 180.2 617.2 180.65 620.55 181.45 620.75 183 620.8 183.35 620.7 183.65
L 620.3 184
Q 619.85 184.25 619.25 184.3 616.6 184.65 613.45 182.8 612.95 182.45 612.3 182.45 611.2 182.45 610.65 183.4 610 184.5 610.8 185.55 611.75 187.05 615.3 189.65 617.3 191.15 617.65 191.45 620.6 193.85 621.1 196.15 621.85 199.35 618.6 203.25 615.6 206.9 613.1 207.5 610.95 208 608.85 206.3 607.45 205.15 603.75 200.4 602.2 198.2 600.85 196.7
L 599.35 195.05
Q 598.85 194.5 597.45 193.65 596.4 192.95 596.55 192.8
L 596.65 192.65
Q 598.65 190.4 602.05 185.55
M 605.05 175
Q 603.9 176.25 600.75 180.8
L 593.8 190.1 593.25 189.55
Q 592.55 188.65 592.3 187.15 592.55 185.95 596.35 180.75 598.3 178.1 600.15 176 602.05 173.85 602.75 173.5 602.75 173.45 603.7 174.05 604.5 174.45 605.05 175
M 697.3 163.45
L 697.25 163.95
Q 697.25 165.1 698.05 165.9 698.85 166.7 700 166.7 701.15 166.7 701.95 165.9 702.75 165.1 702.75 163.95 702.75 162.8 701.95 162 701.15 161.2 700 161.2
L 699.5 161.25
Q 699.15 161.3 698.55 161.6 699.2 161.95 699.2 162.65 699.2 163.4 698.5 163.7 697.85 164 697.3 163.45
M 634.3 142.7
Q 631.85 141.5 629.25 142.1 626.85 142.65 626.85 143.65 626.85 146.35 629.1 148.05 631.25 149.7 634.45 149.7 637.6 149.7 639.75 147.9 641.95 146.1 641.9 143.4 641.9 142.55 639.35 142.05 636.55 141.45 634.3 142.7
M 631 147.05
Q 629.55 146.3 629.55 145.1 629.55 144.4 634.4 144.4 639.2 144.4 639.2 145 639.2 146.2 637.8 147 636.4 147.75 634.4 147.75 632.35 147.75 631 147.05
M 635.55 136.35
Q 634.9 137.05 634.4 137.05 633.85 137.05 633.05 136.35 632.35 135.75 631.85 135.95 631 136.25 631.9 137.55 632.85 138.85 634.4 138.85 636 138.85 636.85 137.5 637.75 136.15 636.75 135.9 636.15 135.75 635.55 136.35
M 616.7 138.8
Q 615.4 140.1 615.4 141.95 615.4 143.8 616.7 145.05 617.95 146.35 619.8 146.35 621.65 146.35 622.95 145.05 624.25 143.8 624.25 141.95 624.25 140.1 622.95 138.8 621.65 137.5 619.8 137.5 617.95 137.5 616.7 138.8
M 622.9 128.35
Q 621.65 128.35 619.25 129.35 616.45 130.5 616.45 131.6 616.45 133.15 618.6 132.25 622.05 130.8 622.9 130.75 623.9 130.7 624.85 131.6 625.75 132.5 626.6 132.35 628.45 131.6 627.1 130 625.7 128.35 622.9 128.35
M 649.05 146.35
Q 650.9 146.35 652.15 145.05 653.45 143.8 653.45 141.95 653.45 140.1 652.15 138.8 650.9 137.5 649.05 137.5 647.2 137.5 645.9 138.8 644.6 140.1 644.6 141.95 644.6 143.8 645.9 145.05 647.2 146.35 649.05 146.35
M 652.3 131.15
Q 652.3 130.05 649.5 128.9 647.1 127.9 645.85 127.9 643.05 127.9 641.65 129.55 640.3 131.15 642.15 131.9 643 132.05 643.9 131.2 644.85 130.25 645.85 130.3 646.7 130.35 650.15 131.8 652.3 132.7 652.3 131.15 Z"/>
</g>
</defs>

<g transform="matrix( 1.78924560546875, 0, 0, 1.7893829345703125, -979.65,-143.15) ">
<use xlink:href="#Layer0_0_MEMBER_0_FILL"/>
</g>
</svg>
