<svg xmlns="http://www.w3.org/2000/svg" viewBox="0 0 172.73 163.69"><defs><style>.cls-1{fill:#fff;}</style></defs><title>Ресурс 3</title><g id="Слой_2" data-name="Слой 2"><g id="Слой_1-2" data-name="Слой 1"><polygon class="cls-1" points="101.86 161.13 103.49 161.13 103.49 156.15 105.04 156.15 105.04 161.13 106.67 161.13 106.67 154.94 101.86 154.94 101.86 161.13"/><path class="cls-1" d="M45.08,154.75a1.93,1.93,0,0,0-1.63.9l-.08-.71H41.94v8.75l1.62-.18v-2.85a1.67,1.67,0,0,0,1.37.66,1.8,1.8,0,0,0,1.18-.42,2.6,2.6,0,0,0,.77-1.16,5,5,0,0,0,.27-1.72,4.7,4.7,0,0,0-.52-2.42A1.71,1.71,0,0,0,45.08,154.75Zm-.62,5.35a1.07,1.07,0,0,1-.9-.57v-2.81c.28-.5.62-.76,1-.76a.73.73,0,0,1,.68.47,4,4,0,0,1,.22,1.6C45.46,159.41,45.13,160.1,44.46,160.1Z"/><path class="cls-1" d="M74.91,155.44a1.77,1.77,0,0,0-.66,1.48,1.67,1.67,0,0,0,.89,1.59l-1.29,2.62h1.7l1-2.22h.76v2.22H79v-6.19h-2.1A3.25,3.25,0,0,0,74.91,155.44Zm2.41,2.45h-.51a1,1,0,0,1-.7-.23,1.08,1.08,0,0,1-.21-.73,1,1,0,0,1,.22-.7,1.07,1.07,0,0,1,.72-.22h.48Z"/><polygon class="cls-1" points="87.8 154.94 86.27 154.94 85.02 157.38 84.46 157.38 84.46 154.94 82.84 154.94 82.84 161.13 84.46 161.13 84.46 158.42 84.99 158.42 86.25 161.13 87.94 161.13 86.32 157.81 87.8 154.94"/><polygon class="cls-1" points="117.06 157.38 115.47 157.38 115.47 154.94 113.84 154.94 113.84 161.13 115.47 161.13 115.47 158.58 117.06 158.58 117.06 161.13 118.68 161.13 118.68 154.94 117.06 154.94 117.06 157.38"/><path class="cls-1" d="M112.53,160a1,1,0,0,1-.09-.48v-2.6a2.12,2.12,0,0,0-.56-1.6,2.37,2.37,0,0,0-1.71-.54,5,5,0,0,0-1,.12,5.53,5.53,0,0,0-1.07.33l.36,1.07a4.35,4.35,0,0,1,1.48-.33,1,1,0,0,1,.72.23,1.13,1.13,0,0,1,.22.8v.35h-.55a3.06,3.06,0,0,0-2,.54,1.86,1.86,0,0,0-.68,1.54,1.93,1.93,0,0,0,.5,1.38,1.7,1.7,0,0,0,1.32.54,1.85,1.85,0,0,0,1.67-.9,1.37,1.37,0,0,0,.5.62,2,2,0,0,0,.84.25l.33-1.07A.61.61,0,0,1,112.53,160Zm-1.69-.5a1,1,0,0,1-.89.68.59.59,0,0,1-.5-.23,1,1,0,0,1-.18-.66,1,1,0,0,1,.29-.77,1.41,1.41,0,0,1,.89-.25h.39Z"/><path class="cls-1" d="M121.36,159.52a9.76,9.76,0,0,0,.22-2.2v-2.38h-1.52v6.19h1.66l2-4.58a9.27,9.27,0,0,0-.25,2.21v2.37h1.52v-6.19h-1.67Z"/><path class="cls-1" d="M73.13,160a1,1,0,0,1-.09-.48v-2.6a2.11,2.11,0,0,0-.55-1.6,2.37,2.37,0,0,0-1.71-.54,5,5,0,0,0-1,.12,5.53,5.53,0,0,0-1.07.33l.36,1.07a4.39,4.39,0,0,1,1.49-.33,1,1,0,0,1,.72.23,1.18,1.18,0,0,1,.21.8v.35h-.55a3.08,3.08,0,0,0-2,.54,1.86,1.86,0,0,0-.68,1.54,1.93,1.93,0,0,0,.5,1.38,1.71,1.71,0,0,0,1.33.54,1.86,1.86,0,0,0,1.67-.9,1.3,1.3,0,0,0,.5.62,2,2,0,0,0,.83.25l.34-1.07A.63.63,0,0,1,73.13,160Zm-1.69-.5a1,1,0,0,1-.88.68.62.62,0,0,1-.51-.23,1.11,1.11,0,0,1-.17-.66,1,1,0,0,1,.29-.77,1.37,1.37,0,0,1,.89-.25h.38Z"/><polygon class="cls-1" points="65.65 157.38 64.06 157.38 64.06 154.94 62.43 154.94 62.43 161.13 64.06 161.13 64.06 158.58 65.65 158.58 65.65 161.13 67.27 161.13 67.27 154.94 65.65 154.94 65.65 157.38"/><path class="cls-1" d="M60.34,155.68a1.92,1.92,0,0,0-1.07-.32,1.87,1.87,0,0,0-1.7,1,4.19,4.19,0,0,1,.23-1.09,1.56,1.56,0,0,1,.43-.63,2.82,2.82,0,0,1,.74-.41c.41-.15.75-.3,1-.43a8.46,8.46,0,0,0,.77-.44l-.61-1a8,8,0,0,1-.83.45c-.24.11-.57.25-1,.4a3.57,3.57,0,0,0-1.4.87,3.18,3.18,0,0,0-.7,1.41,10.26,10.26,0,0,0-.2,2.22,4.34,4.34,0,0,0,.71,2.77,2.39,2.39,0,0,0,2,.87,2.5,2.5,0,0,0,1.94-.8,3.39,3.39,0,0,0,.71-2.3,3.85,3.85,0,0,0-.28-1.56A2.22,2.22,0,0,0,60.34,155.68Zm-.92,4a.83.83,0,0,1-.73.38.79.79,0,0,1-.73-.44,3.12,3.12,0,0,1-.25-1.43v-.76a1.63,1.63,0,0,1,.48-.68,1,1,0,0,1,.62-.22.68.68,0,0,1,.64.37,4.41,4.41,0,0,1,0,2.78Z"/><path class="cls-1" d="M90.89,154.75a2.45,2.45,0,0,0-2,.86,4.44,4.44,0,0,0,0,4.85,2.45,2.45,0,0,0,2,.86,2.48,2.48,0,0,0,2-.88A3.69,3.69,0,0,0,93.6,158a3.63,3.63,0,0,0-.72-2.43A2.45,2.45,0,0,0,90.89,154.75Zm.77,4.86a.87.87,0,0,1-1.56,0,5.05,5.05,0,0,1,0-3.17.87.87,0,0,1,1.56,0,3.76,3.76,0,0,1,.25,1.58A3.61,3.61,0,0,1,91.66,159.61Z"/><path class="cls-1" d="M50.2,156.89h-.32v-1.95H48.26v6.19h2.09a2.79,2.79,0,0,0,1.79-.53,2.3,2.3,0,0,0,0-3.17A3,3,0,0,0,50.2,156.89Zm.75,2.9a.89.89,0,0,1-.68.24h-.39V158h.33a1,1,0,0,1,.75.24,1.19,1.19,0,0,1,.21.79A1.26,1.26,0,0,1,51,159.79Z"/><path class="cls-1" d="M126.79,155.44a1.77,1.77,0,0,0-.67,1.48,1.69,1.69,0,0,0,.89,1.59l-1.28,2.62h1.69l1-2.22h.76v2.22h1.62v-6.19h-2.09A3.21,3.21,0,0,0,126.79,155.44Zm2.41,2.45h-.52a.91.91,0,0,1-.69-.23,1,1,0,0,1-.22-.73,1,1,0,0,1,.23-.7,1,1,0,0,1,.72-.22h.48Z"/><path class="cls-1" d="M98.37,154.94l-.82,4.12-.78-4.12H94.85l-.48,6.19h1.52L96,158.7c0-.18,0-.44,0-.77,0-.54,0-1.05,0-1.55l.9,4.11h1.36l.92-4.12c0,.52,0,1,0,1.42s0,.7,0,.91l.13,2.43h1.53l-.49-6.19Z"/><rect class="cls-1" x="53.31" y="154.94" width="1.62" height="6.19"/><path class="cls-1" d="M12,124.16H10.18a.47.47,0,0,0-.39.14,1.37,1.37,0,0,0-.2.45l-2.33,7.7c-.12.39-.23.77-.32,1.15s-.18.71-.25,1l-.17.73-.06.26a2.18,2.18,0,0,1-.07-.26c0-.18-.1-.41-.17-.71s-.16-.65-.26-1-.23-.81-.37-1.24L3,124.16H.59a1.06,1.06,0,0,0-.4.08c-.13.05-.19.22-.19.51v21.14c1,0,1.71,0,2.16,0a1.84,1.84,0,0,0,.82-.14.48.48,0,0,0,.15-.41l-.06-5.9c0-.77,0-1.52-.08-2.27s-.1-1.45-.17-2.12-.12-1.31-.18-1.89-.12-1.11-.17-1.54-.1-.77-.14-1l-.06-.36.09-.08c.11.43.23.89.36,1.37.17.67.35,1.33.52,2s.33,1.22.47,1.72.23.88.29,1.11l1.52,4.53H6.83a.32.32,0,0,0,.34-.22l1.55-4.31c.08-.25.19-.62.33-1.12s.29-1.07.48-1.71.36-1.3.54-2c.13-.49.25-.95.36-1.39l.06,0-.06.39c0,.26-.09.6-.14,1s-.11.95-.16,1.55-.11,1.25-.17,1.94-.12,1.41-.17,2.14-.09,1.49-.11,2.25l-.12,6.43c1.09,0,1.86,0,2.29,0a1.73,1.73,0,0,0,.8-.14.5.5,0,0,0,.14-.41V124.16H12Z"/><path class="cls-1" d="M23.13,124.42a2.44,2.44,0,0,0-.34.8l-1,5.2c-.28,1.47-.51,2.81-.72,4s-.33,2.31-.4,3.31c-.12-1-.25-2.11-.42-3.33s-.41-2.58-.73-4.06L18,124.16H15.78a1.73,1.73,0,0,0-.65.09.36.36,0,0,0-.19.37,3.2,3.2,0,0,0,.05.45c0,.19.1.44.17.76.19.74.42,1.67.71,2.81s.58,2.35.91,3.65.67,2.57,1,3.81.64,2.36.92,3.33.51,1.7.67,2.16A4.77,4.77,0,0,1,19,142.8a.72.72,0,0,1-.69.43,2.6,2.6,0,0,1-.82-.19,5,5,0,0,1-.94-.49,4.89,4.89,0,0,0-.41,1.08,3.76,3.76,0,0,0-.11.74,1.39,1.39,0,0,0,.78,1.27,3.75,3.75,0,0,0,1.87.4,3.13,3.13,0,0,0,2-.65,3.65,3.65,0,0,0,1-1.65,24.6,24.6,0,0,0,.66-2.5l3.76-17.08H23.88A.93.93,0,0,0,23.13,124.42Z"/><path class="cls-1" d="M35.14,124.74a8.09,8.09,0,0,0-3.28-.58h-3a.64.64,0,0,0-.48.14.74.74,0,0,0-.11.45v21.14c1.06,0,1.8,0,2.24,0a1.67,1.67,0,0,0,.79-.14.5.5,0,0,0,.14-.41v-8H32a7.36,7.36,0,0,0,2.15-.31A4.71,4.71,0,0,0,36,136a5.16,5.16,0,0,0,1.32-2.11,10.09,10.09,0,0,0,.48-3.38,8.68,8.68,0,0,0-.67-3.78A3.86,3.86,0,0,0,35.14,124.74Zm-1.12,8a2.46,2.46,0,0,1-.65,1.31,1.54,1.54,0,0,1-1,.35h-.87v-7.51h1.06a1.41,1.41,0,0,1,1,.36,2.12,2.12,0,0,1,.54,1.07,7.32,7.32,0,0,1,.17,1.74A11.58,11.58,0,0,1,34,132.77Z"/><path class="cls-1" d="M52.06,124.16H50.21a.46.46,0,0,0-.38.14,1.35,1.35,0,0,0-.21.45l-2.32,7.7c-.13.39-.24.77-.33,1.15s-.18.71-.25,1l-.17.73-.06.26-.06-.26c0-.18-.1-.41-.17-.71s-.16-.65-.27-1-.22-.81-.37-1.24L43,124.16H40.62a1.06,1.06,0,0,0-.4.08c-.12.05-.19.22-.19.51v21.14c1,0,1.72,0,2.16,0a1.8,1.8,0,0,0,.82-.14.45.45,0,0,0,.16-.41l-.06-5.9c0-.77,0-1.52-.08-2.27s-.11-1.45-.17-2.12-.13-1.31-.19-1.89-.12-1.11-.17-1.54-.1-.77-.14-1l-.06-.36.1-.08c.11.43.22.89.35,1.37.18.67.35,1.33.53,2s.33,1.22.46,1.72l.3,1.11,1.52,4.53h1.3a.31.31,0,0,0,.34-.22l1.56-4.31c.08-.25.19-.62.32-1.12l.48-1.71c.19-.64.37-1.3.54-2,.13-.49.25-.95.37-1.39l.05,0-.06.39c0,.26-.09.6-.14,1s-.1.95-.15,1.55-.11,1.25-.17,1.94-.12,1.41-.17,2.14-.09,1.49-.11,2.25l-.13,6.43c1.1,0,1.87,0,2.3,0a1.67,1.67,0,0,0,.79-.14.5.5,0,0,0,.14-.41V124.16h-.76Z"/><path class="cls-1" d="M62.11,124.13q-.4,0-.81,0c-.76,0-1.18.19-1.24.56l-5.31,21.16c.38.05.75.08,1.14.1l.85,0a2.5,2.5,0,0,0,1.18-.16.73.73,0,0,0,.28-.46l1-4.56h4.54l1.11,5.12,1.09,0,.77,0a2.69,2.69,0,0,0,1.21-.16.37.37,0,0,0,.19-.43l-5.31-21.17Zm-2.29,13.78.74-3.38c.14-.6.27-1.24.37-1.93s.21-1.37.31-2.06.19-1.33.25-1.91c0,.58.11,1.22.2,1.91s.2,1.38.33,2.06.24,1.33.37,1.93l.73,3.38Z"/><path class="cls-1" d="M77,124.33a.57.57,0,0,0-.12.42v8H73.23v-8.63c-1.08,0-1.83,0-2.27,0a1.66,1.66,0,0,0-.77.14.53.53,0,0,0-.13.42v21.14c1.08,0,1.84,0,2.28,0s.71-.06.78-.14a.59.59,0,0,0,.11-.41v-9.53h3.63v10.12c1,0,1.8,0,2.25,0a1.61,1.61,0,0,0,.79-.14.54.54,0,0,0,.12-.41V124.16c-1.07,0-1.83,0-2.26,0A1.72,1.72,0,0,0,77,124.33Z"/><path class="cls-1" d="M86.39,137.71a7.43,7.43,0,0,0,1.18-.09c.37-.06.81-.15,1.31-.28v8.55c1,0,1.78,0,2.21,0a1.58,1.58,0,0,0,.79-.14.49.49,0,0,0,.14-.41V124.16q-1.53,0-2.19,0a1.65,1.65,0,0,0-.8.15.49.49,0,0,0-.15.41v9.73a5.44,5.44,0,0,1-.81.25,3.81,3.81,0,0,1-.82.09,1.15,1.15,0,0,1-1-.71,5.83,5.83,0,0,1-.38-2.5v-7.45c-1,0-1.75,0-2.18,0a1.66,1.66,0,0,0-.79.15.49.49,0,0,0-.14.41V132a8.13,8.13,0,0,0,.89,4.41A3.14,3.14,0,0,0,86.39,137.71Z"/><path class="cls-1" d="M101.32,124.13q-.41,0-.81,0c-.76,0-1.18.19-1.24.56L94,145.82c.37.05.75.08,1.13.1l.85,0a2.48,2.48,0,0,0,1.18-.16.69.69,0,0,0,.28-.46l1-4.56H103l1.1,5.12,1.09,0,.77,0a2.66,2.66,0,0,0,1.21-.16.37.37,0,0,0,.19-.43L102,124.19ZM99,137.91l.74-3.38c.14-.6.27-1.24.37-1.93s.21-1.37.31-2.06.19-1.33.25-1.91c0,.58.11,1.22.2,1.91s.2,1.38.33,2.06.25,1.33.37,1.93l.73,3.38Z"/><path class="cls-1" d="M116.2,124.33a.53.53,0,0,0-.13.42v8h-3.63v-8.63c-1.08,0-1.83,0-2.27,0a1.66,1.66,0,0,0-.77.14.57.57,0,0,0-.13.42v21.14c1.08,0,1.84,0,2.29,0s.7-.06.77-.14a.59.59,0,0,0,.11-.41v-9.53h3.63v10.12c1.06,0,1.81,0,2.25,0a1.57,1.57,0,0,0,.79-.14.54.54,0,0,0,.13-.41V124.16c-1.08,0-1.83,0-2.27,0A1.66,1.66,0,0,0,116.2,124.33Z"/><path class="cls-1" d="M132,126.13a4,4,0,0,0-1.71-1.75,5.73,5.73,0,0,0-2.58-.53,5.18,5.18,0,0,0-3.3,1,6.21,6.21,0,0,0-2,3.42,26.16,26.16,0,0,0-.65,6.6,41.11,41.11,0,0,0,.31,5.62,10.46,10.46,0,0,0,1,3.44,3.85,3.85,0,0,0,1.74,1.74,6.09,6.09,0,0,0,2.56.5,5.12,5.12,0,0,0,3.34-1.06,6.47,6.47,0,0,0,1.91-3.54,29.61,29.61,0,0,0,.62-6.82,38.79,38.79,0,0,0-.3-5.31A10.22,10.22,0,0,0,132,126.13Zm-2.41,13.41a6.63,6.63,0,0,1-.68,2.58,1.59,1.59,0,0,1-2.72,0,5.68,5.68,0,0,1-.63-2.36,39.57,39.57,0,0,1-.17-4.19,46.62,46.62,0,0,1,.21-5,7,7,0,0,1,.72-2.67,1.52,1.52,0,0,1,1.36-.81,1.47,1.47,0,0,1,1.35.75,6.1,6.1,0,0,1,.61,2.45q.15,1.71.15,4.56A41.67,41.67,0,0,1,129.63,139.54Z"/><path class="cls-1" d="M142.15,124.34a.49.49,0,0,0-.15.41v9.73a5.44,5.44,0,0,1-.81.25,3.81,3.81,0,0,1-.82.09,1.15,1.15,0,0,1-1-.71,5.68,5.68,0,0,1-.38-2.5v-7.45c-1,0-1.75,0-2.18,0a1.63,1.63,0,0,0-.79.15.49.49,0,0,0-.14.41V132a8.13,8.13,0,0,0,.89,4.41,3.14,3.14,0,0,0,2.77,1.28,7.43,7.43,0,0,0,1.18-.09c.37-.06.81-.15,1.31-.28v8.55c1,0,1.78,0,2.21,0a1.58,1.58,0,0,0,.79-.14.52.52,0,0,0,.14-.41V124.16q-1.53,0-2.19,0A1.65,1.65,0,0,0,142.15,124.34Z"/><path class="cls-1" d="M156.57,124.14c-.26,0-.57,0-.93,0a6.3,6.3,0,0,0-1.1.18l-1.13,6.45a3.32,3.32,0,0,1-.69,1.71,1.4,1.4,0,0,1-1,.54H151v-8.9c-1.07,0-1.83,0-2.27,0a1.74,1.74,0,0,0-.81.15.52.52,0,0,0-.14.41v21.14c1.07,0,1.84,0,2.29,0a1.51,1.51,0,0,0,.8-.14.52.52,0,0,0,.13-.41v-9.22h.52a1.94,1.94,0,0,1,1,.28,2.13,2.13,0,0,1,.76,1.15,9.9,9.9,0,0,1,.44,2.57l.5,5.78,1.13.06c.35,0,.71,0,1.07,0a2.62,2.62,0,0,0,1.1-.14.52.52,0,0,0,.23-.54l-.56-5.6a10.85,10.85,0,0,0-.77-3.41,4.1,4.1,0,0,0-1.69-2,3.58,3.58,0,0,0,1-1.06,5.28,5.28,0,0,0,.72-1.84l1.35-6.37c.06-.33,0-.55-.17-.66A2.45,2.45,0,0,0,156.57,124.14Z"/><path class="cls-1" d="M167.41,124.19l-.68-.06q-.4,0-.81,0c-.76,0-1.18.19-1.24.56l-5.31,21.16c.38.05.75.08,1.14.1l.85,0a2.5,2.5,0,0,0,1.18-.16.73.73,0,0,0,.28-.46l1-4.56h4.54l1.11,5.12,1.08,0,.78,0a2.69,2.69,0,0,0,1.21-.16.37.37,0,0,0,.19-.43Zm-3,13.72.74-3.38c.14-.6.27-1.24.37-1.93s.21-1.37.31-2.06.18-1.33.25-1.91c0,.58.11,1.22.2,1.91s.2,1.38.32,2.06.25,1.33.38,1.93l.73,3.38Z"/><path class="cls-1" d="M99.75,43.62A3.37,3.37,0,1,0,103.11,47,3.36,3.36,0,0,0,99.75,43.62Z"/><path class="cls-1" d="M77.6,43.62A3.37,3.37,0,1,0,81,47,3.37,3.37,0,0,0,77.6,43.62Z"/><path class="cls-1" d="M88.65,44.63c1.71,0,2.7-2,1.81-2.22s-1,.87-1.81.86-1.16-1.1-1.92-.84S86.94,44.64,88.65,44.63Z"/><path class="cls-1" d="M79.93,36.67c-.86,0-4.88,1.19-4.88,2.49,0,2,2.69-.5,4.89-.67,1.48-.08,1.52,1.45,2.79,1.23C84.55,39,82.84,36.67,79.93,36.67Z"/><path class="cls-1" d="M102.22,38.82c0-1.3-4-2.49-4.87-2.49-2.92,0-4.63,2.32-2.8,3.05,1.26.22,1.31-1.31,2.78-1.23C99.54,38.33,102.22,40.83,102.22,38.82Z"/><path class="cls-1" d="M88.6,47.56c-2.73-1.38-5.68-.1-5.68.7,0,2.78,2.62,4.61,5.76,4.61s5.68-2,5.68-4.78C94.36,47.44,91.14,46.16,88.6,47.56Zm.07,3.83c-2,0-3.68-.8-3.68-2,0-.71,7.3-.65,7.3-.08C92.29,50.51,90.67,51.39,88.67,51.39Z"/><path class="cls-1" d="M24.51,87.76a1.66,1.66,0,0,0,.58-.11C35.46,83.8,37.85,86.12,41.82,90a38.3,38.3,0,0,0,15.4,9.85,82.71,82.71,0,0,0,29.46,4.52,70.6,70.6,0,0,0,17.7-2.65,1.47,1.47,0,0,1-.1-.13c.1.11.19.22.29.32a7.3,7.3,0,0,0,3.2,1.66l.28,0c1.24.06,4.1-1.31,6.87-3h0c3.12-1.86,6.31-4.17,6.95-5.19a3.11,3.11,0,0,0,.21-2.34s0,0,0,.06c.68-.43,1-.66,2.25-1.46,1,1.22,5.57,6.85,6.85,6.75a1.49,1.49,0,0,0,1.31-1.07,10.72,10.72,0,0,0,.42-2.76,26.13,26.13,0,0,0-1.32-8.2c1.91-1.53,3.76-3.14,5.51-4.83,5.55-5.36,10.11-11.54,12.35-18.45a10.66,10.66,0,0,0,.45-3c-.06-3.39-2.26-4.33-5.57-4.14a35.42,35.42,0,0,0-5.79,1c-4.51,1-8.55,2-12.26,2.93.76-7.18,2.69-13.08-3.15-14.39,5.51-11.74,2.15-20.76-1.27-14.5-.47.86-.43-5-2.25-10-1.7-8.13-.65-16-8-9.46C107.47,4.31,90.26-3.8,93.34,2c0,.06-20-9.59-35.56,14.7-1,1.58-.34,3,.73,3.23.17.92-2,3.78-2.84,5.24A27.85,27.85,0,0,0,52.22,39c.21,4.36,1.07,3.78,3.38,5.55-7.3,2.94-5.37,7.84-3.49,16.58a35.77,35.77,0,0,0-3.94,3.64,19.48,19.48,0,0,0-4.51-5.35,15.27,15.27,0,0,0-7.49-3.35l-.28,0A1.93,1.93,0,0,0,34,58a1.75,1.75,0,0,0,0,.44,1.72,1.72,0,0,0,.14.4c3.23,6.68,4.62,11.81-2.41,15.49a19.07,19.07,0,0,0-6.36,5.09A11.46,11.46,0,0,0,22.83,86a1.64,1.64,0,0,0,.49,1.27A2.73,2.73,0,0,0,24.51,87.76ZM104.46,97l-.08,0c-.26.19-.74-1.4-1.48-2.29a14,14,0,0,0-1.16-1.3c-.82-.84-1.68-1.65-2.54-2.45a27.39,27.39,0,0,1-4-4.29c-1.36-2.07-1.21-4.3,3.06-7.12,4.85-3.2,7.32-.86,9.1,1.84.37.56.75,1.2,1.11,1.81a13.53,13.53,0,0,0,2.7,3.62,1.46,1.46,0,0,0,2.4-1.24h0a2,2,0,0,0-.1-.4,11.42,11.42,0,0,1-.78-3.82,3.74,3.74,0,0,1,.25-1.58c.08-.17.17-.28.29-.3a1.16,1.16,0,0,1,.47,0c1.74.4,1.68,4.66,1.65,7.78,0,.87,0,1.66,0,2.3a1.44,1.44,0,0,0,.19.7c-.65.35-1.36.76-2.1,1.2l-3.28,2C108,94.71,105.85,96,104.46,97Zm9,1.14h0a22.38,22.38,0,0,1-5.15,2.55,4.26,4.26,0,0,1-1.72-.91,2.16,2.16,0,0,1-.36-.45l5.4-3.29,2.13-1.19c2-1.12,3.76-2.1,4.73-2.81a5.08,5.08,0,0,1,.59,1.08c.19.47.37.76.36.78C119,94.53,116.24,96.44,113.44,98.11ZM121.27,91l0,0ZM56.65,47.94c3.25-.2,3.45-7-1-7.9-.52-6.82,6-20.44,11.65-23.67-2.26-.67-3.78-.4-6.14,1.07,9.17-15.59,24-15.53,36.81-10.81-.62-1.41-1.19-1.86-1.74-3,5.62,1.75,13.91,9.4,15.6,13.3a8.5,8.5,0,0,0,3.43-4.67c1.12,8.8,5,16.26,4.63,24.55a6.92,6.92,0,0,0,3.83-3.25,12,12,0,0,1-1,5.23c-4.18,8.31-3.43,10.18-.25,9.94,3.08.08.89,7.26.34,12-3,.76-5.69,1.51-8.28,2.24-7.88.34-12.38-.62-19,3.29a.28.28,0,0,0-.13.23.27.27,0,0,0,.28.28h0c2.31-.08,3.44.32,4.15.8-3.08,1.06-6.17,2.18-9.42,3.39-.29-3.87-.44-8.53,1.73-10.2,2.63-2,7.16-1.65,11.55-6.36a22,22,0,0,0,5.82-10.71C111,36.83,107.37,27.25,98,22.14,83.7,14.4,62.34,28.45,69.76,47.49c4,10.14,11.49,11.23,15.2,13.2,3.08,1.64,2.72,7.39,2.42,11.42l-5.65,2.14-2,.81.1.1C77.77,73.39,74,73,71,72.75l-1.61-.16.13-.46A1.47,1.47,0,0,0,69.34,71a7,7,0,0,0-2.57-2.25,4.1,4.1,0,0,0-3.41-.49h0a1.66,1.66,0,0,0-.32.2c-5.47-3.1-7.14-5.95-8.1-6.68C55.11,56.58,50.77,48.3,56.65,47.94Zm32,9.59C72.92,57.84,66.36,41,73.94,30.42c4.21,1.91,13.91,3.54,15-3.37h0c1.7,6.79,10.9,5.2,14.4,3.23C112.44,44.09,102.33,57.26,88.67,57.53ZM80.29,75.65l-.16-.17Zm-9.52,4.41a13.39,13.39,0,0,0,3.39,3.09c.62.45,1.25.92,1.81,1.38,2.41,2,4.3,4.56.72,8.92-3.25,4-5.49,3.88-7.4,2.31a27.17,27.17,0,0,1-3.85-4.45c-.71-.94-1.43-1.89-2.2-2.8a13,13,0,0,0-1.15-1.26c-.81-.83-2.33-1.48-2.12-1.72l.07-.08c1.15-1.3,2.65-3.35,4.1-5.39l2.22-2.94c.52-.7,1-1.36,1.42-2a1.39,1.39,0,0,0,.62.24h0c.58.09,1.42.17,2.33.25,3.11.29,7.35.68,7.59,2.45a.77.77,0,0,1-.07.51.68.68,0,0,1-.29.26,2.32,2.32,0,0,1-.78.23A7.38,7.38,0,0,1,72.77,78a1.46,1.46,0,0,0-.85-.27h0a1.46,1.46,0,0,0-1.14,2.36ZM57.88,83.48a2,2,0,0,1-.4-.41,4.2,4.2,0,0,1-.73-1.81,22.81,22.81,0,0,1,3.06-4.84c1.95-2.61,4.14-5.17,4.84-5.53h0s.3.2.75.44a5,5,0,0,1,1,.69,53.66,53.66,0,0,0-3.28,4.41l-1.47,2.08C59.92,80.82,58.29,83,57.88,83.48ZM53.64,64.11A56.23,56.23,0,0,0,61,70.41a55,55,0,0,0-3.53,4.27c-1.86,2.5-3.47,5.11-3.63,6.4h0c-1.76-1.73-2.52-5.28-3.21-8.63-.28-1.38-.57-2.72-.92-4A36.74,36.74,0,0,1,53.64,64.11ZM27.69,81.17a16.16,16.16,0,0,1,5.4-4.29c8-4.19,8.11-9.19,4.54-17.5a12.61,12.61,0,0,1,4.19,2.29,16.15,16.15,0,0,1,4.52,5.94A31,31,0,0,1,47.77,73c.88,4.29,1.81,8.84,5,11a5.39,5.39,0,0,0,2.33.78,3.25,3.25,0,0,1-.23-.37c.09.15.18.3.28.44a4.61,4.61,0,0,0,2.58,1.73A14.76,14.76,0,0,0,60,89.29a12.37,12.37,0,0,1,.86.93l.11.14c.71.84,1.42,1.77,2.12,2.7a29.09,29.09,0,0,0,4.33,5c3.22,2.64,6.79,3,11.5-2.71,5.19-6.34,2.42-10.12-1.12-13L77.47,82h.09a5,5,0,0,0,1.8-.57,3.52,3.52,0,0,0,1.4-1.33,3.56,3.56,0,0,0,.44-2.36,2.65,2.65,0,0,0-.06-.3c0,.06,0,.12,0,.18,8.88-3.53,18-6.87,27.09-9.71,4.51-1.41,9.28-2.77,14.8-4.21a19,19,0,0,0,.61,4.62c.94,3.54,2.79,7.29,6.15,9.06a20.91,20.91,0,0,1-3.31-7.56,25.44,25.44,0,0,1-.57-5.37c0-.5,0-1,0-1.5,4-1,8.33-2,13.23-3.17a34.14,34.14,0,0,1,5.31-.88C146,58.81,147,59,147,60.16a7.34,7.34,0,0,1-.32,2.07c-2.07,6.39-6.36,12.17-11.59,17.23-1.47,1.42-3,2.79-4.61,4.09a20.78,20.78,0,0,0-1.07-2,73.18,73.18,0,0,1,.77,12c0,.18-1.49-1.34-1.74-1.56-2-1.77-4.18-3.09-3.85-5.91a9.75,9.75,0,0,1,1.32-3.82,6.82,6.82,0,0,0-3.07,5.9,6.5,6.5,0,0,0,.15.9c-1.11.74-1,.69-2.1,1.37,0,0,0,0,0,0a5.55,5.55,0,0,0-1.14-1.27,1.47,1.47,0,0,0-1.08-.28l-.47.07c0-.49,0-1,0-1.64,0-4.11.12-9.73-3.9-10.65a3.93,3.93,0,0,0-1.62-.07,3.23,3.23,0,0,0-2.42,1.92,5.53,5.53,0,0,0-.43,1.41l-.09-.14c-2.58-3.91-6.14-7.29-13.12-2.68-6.2,4.08-6.19,7.67-3.9,11.14a28.94,28.94,0,0,0,4.47,4.83c.85.8,1.71,1.6,2.47,2.39a.94.94,0,0,0,.1.1,12.71,12.71,0,0,1,.86,1,15.12,15.12,0,0,0,2.46,2.53,6,6,0,0,0,.17.7c-.06-.21-.12-.43-.17-.69a69.2,69.2,0,0,1-16.51,2.28,79.89,79.89,0,0,1-28.39-4.36,35.94,35.94,0,0,1-14.35-9.18c-4.52-4.38-7.35-7.13-17.78-3.67A9.51,9.51,0,0,1,27.69,81.17Zm52.89-5.12a1.74,1.74,0,0,1,.11.18A1.74,1.74,0,0,0,80.58,76.05Zm.36.7a1,1,0,0,0,0,.12A.61.61,0,0,1,80.94,76.75Zm22.62,23.76a3.62,3.62,0,0,1-.2-.44A4.48,4.48,0,0,0,103.56,100.51Z"/><polygon class="cls-1" points="129.42 81.57 129.42 81.57 129.42 81.57 129.42 81.57"/><path class="cls-1" d="M138.4,65.77a2.1,2.1,0,0,0,0-4.19,1.72,1.72,0,0,0-.39,0,2.14,2.14,0,0,0-.72.29.84.84,0,1,1-.94,1.36,1.72,1.72,0,0,0,0,.39A2.09,2.09,0,0,0,138.4,65.77Z"/></g></g></svg>